<svg enable-background="new 0 0 600 275" viewBox="0 0 600 275" xmlns="http://www.w3.org/2000/svg">
    <path d="m129.6 14.1c-.8 2.6-1.5 5.3-2.5 7.9-5.6 16.2-23.4 24.4-28.5 40.9-5 16.1-3 33.6 1.3 49.7 6.2-5.6 12.5-11.2 19-16.6 6.1-5.2 12.5-10.6 16-18 9.2-20.4 7-45.3-5.3-63.9zm-19.4 79.2c-2.2 5.6-5.1 11-8.9 15.6 4-14.8 8.2-29.5 12.5-44.1 3 9.5 0 19.5-3.6 28.5z"
          fill="#00ba38"/>
    <path d="m90.7 86c-.2-6-.4-12.2-3.1-17.7-8.1-16.6-25.2-28-43.5-29.9 3.5 5 6.8 10.4 7.9 16.6 1.9 9.9 1.6 20.8 7.6 29.4 7.8 11.2 19.6 18.8 31.9 24.2-.5-7.5-.7-15-.8-22.6zm-27.9-28c4.5 4.2 9.7 8.1 12 14 3.5 8.5 6.1 17.4 7.2 26.5-4.1-14.4-11.1-27.9-19.2-40.5z"
          fill="#00ba38"/>
    <path d="m171.5 157.8c-1.5-11-5.4-22.1-13.2-30.2-9.5-10-23.1-14.8-36.4-17.2-9.7-1-16.5 8.5-26 8.9-10.6.3-18.4-10.2-29.1-9-13.7 1.8-27.6 7-36.8 17.8-6 6.9-9.6 15.5-11.5 24.4-4.2 21.1-3.4 44.1 7.5 63.2 3.3-1.2 7.1-1.5 9.9-3.8 4.3-7.6 6.6-16.2 11.3-23.6-.2-.6-.7-1.7-.9-2.3 1.8-.8 3.6-1.5 5.4-2.3-2.9-7.1-3.3-15-2.3-22.6.4-2.3-.6-5.5 2-6.8 4.7-2.9 10.4-2.8 15.6-3.9 4.5-1 9-1.9 13.6-1.3-.6-1.6-1.4-3-2.5-4.3.2-4.6.8-10.1 5.2-12.6 4.4-3.9 11.1-3.2 15.8-.1-.3 3.6-.4 7.3-1.4 10.9.2.8.6 2.4.8 3.2-.5.3-1.6.9-2.2 1.2-.4 1.5-.8 2.9-1.1 4.4-1.7-.1-3.4-.2-5.1-.2-.6 1.1-1.2 2.2-1.8 3.3 2.5 2.3 5.9 3.9 7.2 7.1.5 7.7-1 15.5-3 23 4 4.2 9.4 6.8 13.4 11 1.6 2.2 3 5.7.4 7.8-1.3-2.1-2.6-4.2-3.9-6.3-.7 1-1.4 2-2.1 3-.8-5.1-6.1-6.5-9.9-9-1.7-1.2-4.3-2.1-4.3-4.5-.1-5.1.5-10.1.4-15.2-3 6.6-7.6 12.2-11.3 18.5-.7 1.9-2.7 3.9-1.5 6 1.4 2.5 3.8 4.1 5.8 6.1 4.3 4.1 8.6 8.1 12.5 12.5 3.4 5.4-.9 11.4-.4 17.1.2 7.9-3.6 16.1-.2 23.7 30.3 1.8 60.5-16.4 73.4-43.8 8.6-16.6 9.2-35.9 6.7-54.1zm-11.3 40.5c-3.6 4.5-9.8 5.8-15.3 5.8-7.3 0-14.6 0-22-.1-.1-18.8 0-37.6 0-56.3 6.3-.4 12.7-.1 19-.2 4.8 0 9.8.2 14 2.7 8.6 4.9 8.9 19.2.5 24.6 8.2 4.5 9.3 16.4 3.8 23.5z"
          fill="#00ba38"/>
    <path d="m220.4 154.6c-5.2-7.6-15.6-9.3-24-7.1-5.2 1.3-9.8 4.9-12 9.8-3.7 7.7-2.5 16.5-2.6 24.7-.2 8 2.9 17 10.6 20.7 9.2 4.5 22.4 3.1 28.4-6 4.2-6 3.9-13.7 4-20.7-.2-7.3.1-15.2-4.4-21.4zm-7.5 35.4c-2.4 6.1-10.9 7.8-16.1 4.2-3-2-4.4-5.6-4.7-9.1-.5-6.4-.5-12.8.1-19.1.4-4.1 2.9-8.4 7.1-9.7s9.4-.5 12.2 3.1c3.3 4.1 2.7 9.7 3 14.6-.1 5.4.4 10.9-1.6 16z"
          fill="#00ba38"/>
    <path d="m444.4 156.3c2.2-5 7.3-8.3 12.6-9.2 8.4-1.4 17.3.6 24.1 5.6-1.6 2.6-3.3 5.2-5 7.7-5.5-3.3-12.1-6.2-18.5-4-4.8 1.6-6.3 9-1.7 11.7 6.2 3.6 14.1 2 20.2 5.8 9.3 5.2 9.4 20 1.4 26.3-4 3.3-9.2 4.5-14.3 4.6-8.2.3-16.7-2.4-22.8-8.1 2-2.6 4.1-5 6.4-7.4 4.7 3.6 10.3 6.6 16.4 6.5 3.3-.1 7-1.2 8.9-4.1 2.1-3.1 1.3-8-2.3-9.6-6.4-3.1-14.2-1.7-20.3-5.8-6.9-3.8-8.1-13.3-5.1-20z"
          fill="#00b1e0"/>
    <path d="m279.2 165c-.5-5.6-3.1-11.3-7.9-14.4-4.5-3-10.1-3.2-15.3-3.2-5.9.1-11.9-.2-17.8.2.1 18.8 0 37.5 0 56.3h21.8c3.8.1 7.7-.8 11-2.8 5-2.9 7.7-8.7 8.2-14.3.6-7.1.6-14.5 0-21.8zm-13.6 27.5c-4.9 3.9-11.6 2-17.3 2.4 0-12.7 0-25.5 0-38.2 5.8.4 12.6-1.5 17.5 2.5 4.5 4.3 3.6 11.1 3.8 16.7-.3 5.7.6 12.5-4 16.6z"
          fill="#00ba38"/>
    <path d="m286.4 147.6c3.4 0 7-.6 10.4.3 4.1 7.3 7.5 15 11.4 22.4 4.1-7.5 7.3-15.4 11.8-22.6 3.2-.4 6.4-.2 9.6-.1-5 10.9-10.6 21.4-15.9 32.1-.9 1.6-.8 3.5-.8 5.3v19c-3.3 0-6.7 0-10 0 0-6.7 0-13.4 0-20.1.3-3.8-2.2-6.9-3.7-10.3-4.1-8.7-9-17.1-12.8-26z"
          fill="#00ba38"/>
    <path d="m371.7 180.3c2.4-1.4 4.9-2.7 6.7-4.8 6-6.9 4.9-18.8-2.6-24.2-4.5-3.5-10.4-3.8-15.8-3.7-6 .1-12.1-.2-18.1.2-.6 1.4-.4 2.9-.4 4.3.1 17.3.1 34.6 0 51.9 3.3 0 6.7.5 9.9-.2.3-7.4 0-14.9.1-22.3 3.3-.1 6.6-.1 9.8-.1 3.7 7.5 7.4 15.1 11.1 22.6 3.8.1 7.6.1 11.4.1-3.8-8.2-8-15.9-12.1-23.8zm-6.7-8.1c-4.5.2-9 0-13.5 0 0-5.2 0-10.3 0-15.5 5.1.2 10.3-.5 15.4.4 5 1.2 6.9 7.9 4 11.9-1.3 1.9-3.6 3.1-5.9 3.2z"
          fill="#00b1e0"/>
    <path d="m394.8 147.6c12.4-.2 24.8-.2 37.2 0 0 2.9.1 5.8.1 8.8-9.1.8-18.2.1-27.3.4v14.2c7.7 0 15.3-.1 23 .1v8.9c-7.7.1-15.3 0-23 .1v14.9c9 .1 18.1-.1 27.2.1.1 2.9.1 5.9 0 8.8-12.4.1-24.8 0-37.2 0-.1-18.7 0-37.5 0-56.3z"
          fill="#00b1e0"/>
    <path d="m494.8 147.6c12.3-.2 24.7-.2 37 0 0 3-.1 6-.1 9.1-9 .1-17.9 0-26.9.1v14.2c7.7.1 15.3-.1 23 .1v8.9c-7.6.1-15.3 0-22.9.1v14.9c9 0 18-.1 27 .1v8.9c-12.3.1-24.6 0-36.9 0-.3-18.8-.2-37.6-.2-56.4z"
          fill="#00b1e0"/>
    <path d="m541.8 156.6c0-3 0-6.1 0-9.1 14 0 28-.3 42 .1 0 3-.1 6-.1 9-5.3.1-10.6.1-15.9.1v47.2c-3.3.1-6.6.1-9.9.1-.1-15.7 0-31.5 0-47.2-5.5-.1-10.8 0-16.1-.2z"
          fill="#00b1e0"/>
    <path d="m133 156.6c4.9.2 10-.6 14.9.5 5.8 1.8 6.1 11.1.4 13.2-4.9 1.5-10.2.4-15.2.7-.1-4.8-.1-9.6-.1-14.4z"
          fill="#00ba38"/>
    <path d="m57.3 161.2c3.5-.4 7-1 10.4-1.7-.8 4.7-.8 9.7-3.3 13.9-1.8 2.6-4.1 4.9-6.6 6.8-1.3-.2-2-1.5-3-2.3-.4-5.7 1-11.2 2.5-16.7z"
          fill="#00ba38"/>
    <path d="m133 179.9c5.4.1 11.1-.8 16.3.9 5.7 2.4 5.4 12-.7 13.8-5.1 1.3-10.4.4-15.6.6 0-5.1 0-10.2 0-15.3z"
          fill="#00ba38"/>
    <path d="m39.4 222.5c6.1-5.6 12.7-10.8 17.5-17.7 4.4 3 8.1 6.9 12.5 9.8 4.7 3.4 10.2 5.8 14.1 10.2-3.1 9.9-.1 20.2-.4 30.4-20.4-3-39.5-14.4-51.7-31.1 2.6-.5 5.9.5 8-1.6z"
          fill="#00ba38"/>
    <path d="m236.4 224.8c3-1.9 4.6-6.2 1.7-8.9-3.3-2.5-7.9-1-11.8-1.4v17.2c.7 0 2.2.1 2.9.1 0-2.3.1-4.7.1-7h3.6c1.2 2.2 2.3 4.6 3.8 6.7 1.2.2 2.3.3 3.5.4-1.2-2.4-2.5-4.8-3.8-7.1zm-7.2-2.7c0-1.6 0-3.2 0-4.9 2.2.2 4.8-.5 6.8.9.7 1.3.6 2.4-.4 3.4-2 .7-4.2.5-6.4.6z"
          fill="#00b1e0"/>
    <path d="m253.9 214.9c3.3-1.7 7.2-.6 10.3 1-1.3 3.4-4.7.8-7.3 1.1-1.8-.1-3.5 2.3-1.7 3.6 2.5 1 5.4 1 7.8 2.4 2.5 2.1 1.9 6.6-.9 8.1-3.7 1.9-8.1.8-11.6-1.2.4-.6 1.2-1.8 1.6-2.5 2.7 1 5.8 2.9 8.5 1 1.1-.9 1.2-1.9.2-3.1-2.3-.9-4.9-1-7.2-2-3.1-1.6-2.8-6.8.3-8.4z"
          fill="#00b1e0"/>
    <path d="m289.3 218.4c-1.1-3.7-5.6-5.2-9-4-5.5 1.7-5.1 8.8-4 13.3 1.6 5.6 10.8 5.8 12.8.3 1-3 .9-6.4.2-9.6zm-5.4 10.6c-2.6 1.1-5.3-1.4-5.1-4-.1-2.6-.5-6.5 2.4-7.8 2.6-1.1 5.5.9 5.5 3.7.2 2.7.6 7.1-2.8 8.1z"
          fill="#00b1e0"/>
    <path d="m302.3 214.2c1 .4 2.5.2 3.2 1.2 2.8 3.6 5 7.5 7.7 11.2 0-4 0-8 0-12 .7 0 2-.1 2.6-.1.1 5.8.2 11.6-.1 17.4-.6 0-2 0-2.6 0-2.8-3.9-5.5-8-8.2-12 0 4 0 8-.1 12-.7 0-2 0-2.7 0 .1-6 .1-11.9.2-17.7z"
          fill="#00b1e0"/>
    <path d="m427.5 224.8c3.2-1.9 4.5-6.9 1.2-9.3-3.5-1.8-7.6-.7-11.4-1v17.2c.7 0 2.2.1 2.9.1 0-2.3.1-4.6.1-7 1.2 0 2.4-.1 3.7-.1 1.2 2.3 2.3 4.6 3.8 6.7 1.2.2 2.3.4 3.5.4-1.2-2.3-2.5-4.7-3.8-7zm-7.3-2.8c0-1.6 0-3.2 0-4.8 2.5.3 7.4-1 7.4 2.9-1.3 2.9-4.9 1.6-7.4 1.9z"
          fill="#00ba38"/>
    <path d="m496 214.6c.9-.1 1.8-.1 2.8-.1 0 5.9.1 11.7-.1 17.6-1.1-.4-2.6-.2-3.3-1.3-2.7-3.5-5-7.4-7.6-11v12c-.7 0-2 .1-2.7.1-.1-5.8 0-11.5 0-17.2.7 0 2.2-.1 2.9-.1 2.6 4 5.4 8 8.1 12-.1-4.1-.1-8.1-.1-12z"
          fill="#00ba38"/>
    <path d="m556.8 215.8c3-2.6 8.2-2.2 10.6 1 1.6 1.2-.6 1.9-1.3 2.8-1.1-.9-2.1-1.9-3.1-2.8-1.7.3-4.1.3-4.7 2.3-.7 2.2-.6 4.6-.3 6.9.2 2.4 2.8 4 5 3.2 2-.3 2.2-2.7 3-4.2-1 0-3-.1-3.9-.1 0-.6 0-1.9 0-2.5 2.3 0 4.6 0 6.9.1-.4 2.8-.1 6.1-2.5 8.1-2.7 2.2-7.1 2.1-9.8-.2-1.9-1.9-2.1-4.8-2.1-7.3.1-2.6.2-5.5 2.2-7.3z"
          fill="#00ba38"/>
    <path d="m186.9 215c-3.3-1-6.9-.4-10.4-.5 0 5.8-.1 11.7.1 17.5 4.2.5 2.6-4.3 2.9-6.9 2.4-.1 4.9.1 7.2-.5 4.1-1.3 4.2-8.1.2-9.6zm-7.4 7.3c0-1.7 0-3.4 0-5.1 2.5.3 6.7-.9 7.4 2.6-.4 3.5-5 2.2-7.4 2.5z"
          fill="#00b1e0"/>
    <path d="m201.8 214.5h12v2.7c-3 0-6 0-8.9 0 0 1.4-.1 2.8-.1 4.3h7.7v2.7c-2.6 0-5.2 0-7.8 0v4.5c3 0 6 0 9 .1 0 .7-.1 2.2-.1 2.9-4 0-8 0-11.9 0 0-5.7.1-11.5.1-17.2z"
          fill="#00b1e0"/>
    <path d="m336.8 214.5c-.7 0-2.2 0-2.9 0-2.2 5.8-4.7 11.5-6.6 17.4 2.8.7 3.7-1.5 4.4-3.8 2.4-.1 4.8-.1 7.2-.1.5 1.3 1 2.6 1.5 3.8.7 0 2.2-.1 3-.1-2.1-5.8-4.5-11.5-6.6-17.2zm-4 10.7c.8-2.2 1.7-4.4 2.5-6.5.8 2.2 1.7 4.4 2.5 6.6-1.7-.1-3.3-.1-5-.1z"
          fill="#00b1e0"/>
    <path d="m354.5 214.6c.8 0 2.2-.1 3-.1v14.3h8.7v3c-3.8 0-7.7 0-11.5 0-.4-5.8-.2-11.5-.2-17.2z" fill="#00b1e0"/>
    <g fill="#00ba38">
        <path d="m392.2 214.5h13.8v2.7c-1.8 0-3.7 0-5.5.1v14.5c-.7 0-2.2 0-3 0 0-4.8 0-9.6 0-14.5-1.8 0-3.5 0-5.2 0-.1-.7-.1-2.1-.1-2.8z"/>
        <path d="m450.9 214.6c-.7 0-2.2-.1-2.9-.1-2.2 5.8-4.7 11.5-6.6 17.5 2.9.6 3.8-1.7 4.6-3.9h7c.5 1.2 1 2.5 1.5 3.8h3.1c-2.3-5.9-4.6-11.6-6.7-17.3zm-4 10.6c.8-2.2 1.7-4.4 2.5-6.6.8 2.2 1.6 4.4 2.5 6.5-1.7.1-3.4.1-5 .1z"/>
        <path d="m468.8 214.5c.8 0 2.2.1 3 .1-.1 5.6.2 11.2-.1 16.8-.7.2-2.1.5-2.8.7-.2-5.9-.1-11.8-.1-17.6z"/>
        <path d="m512 214.6c.8 0 2.2-.1 3-.1v17.3c-.7 0-2.2-.1-2.9-.1-.2-5.7-.1-11.4-.1-17.1z"/>
        <path d="m528.5 231.7c0-5.8-.1-11.7 0-17.5.7.2 2.2.6 3 .8 3 3.6 5.2 7.7 8 11.4 0-4 0-7.9 0-11.9h2.7c0 5.9.1 11.7-.1 17.6-1.2-.5-2.8-.3-3.6-1.6-2.6-3.5-4.8-7.2-7.3-10.7 0 4 0 8-.1 12-.6 0-1.9-.1-2.6-.1z"/>
    </g>
</svg>